<svg xmlns="http://www.w3.org/2000/svg" viewBox="0 0 64 64" id="benefaction"><path fill="#0171b9" d="M62.5 9.9h-5.6v16H64zM14.6 19.9h.4l13.5-2.7.1-.2c.3-.9 1-1.7 2-2.1.5-.2 1-.3 1.5-.3H39c.4 0 .7.3.7.7 0 .4-.3.7-.7.7h-6.9c-.3 0-.7.1-.9.2-.7.3-1.2 1-1.3 1.7V18.5c.1 1.1 1 2 2.1 2l7.2.2c.6 0 1.2.2 1.7.4 0 0 .1 0 .1.1l6.8 3.7c.4.2.8.3 1.2.3h6.4V11h-1.6c-.4 0-.8-.1-1.2-.2L38.1 6c-.3 0-.6-.1-.9-.1-.8 0-1.6.2-2.3.5l-21.3 9.4c-.5.2-.8.6-1 1.1-.2.6-.1 1.4.3 2 .3.6 1 1 1.7 1zm29.2 25.4V30.1c0-.3-.3-.6-.6-.6h-1.3V45.3h1.9zM30.1 42c-1.7 0-3 1.3-3.2 2.9v.3h6.5v-.3c-.2-1.6-1.6-2.9-3.3-2.9z"></path><path fill="#0171b9" d="M34.8 45.3h2.4v-9.6l-.2-.1c-1-.3-1.8-1.1-2.1-2.2l-.1-.2h-9.4l-.1.2c-.3 1-1.1 1.9-2.1 2.2l-.2.1v9.6h2.4V45c.1-2.5 2.2-4.4 4.7-4.4s4.5 1.9 4.7 4.4v.3z"></path><path fill="#0171b9" d="M40.5 45.3V30.1c0-.2-.1-.4-.3-.5v-.1h-20c-.3 0-.6.3-.6.6v15.2h1.9V35c0-.4.3-.7.7-.7.9 0 1.7-.8 1.7-1.8 0-.4.3-.7.7-.7h10.7c.4 0 .7.3.7.7 0 1 .8 1.8 1.7 1.8.4 0 .7.3.7.7v10.2h2.1z"></path><path fill="#2c3a45" d="M45.2 45.3h1.6c.4 0 .7.3.7.7 0 .4-.3.7-.7.7H13.4c-.4 0-.7-.3-.7-.7 0-.4.3-.7.7-.7h4.9v-5.6H0v18.4h60.2V39.6h-15v5.7z"></path></svg>