<svg xmlns="http://www.w3.org/2000/svg" enable-background="new 0 0 512 512" viewBox="0 0 512 512" id="student-id-card"><g display="none"><path fill="#C4C2C2" stroke="#000" stroke-linecap="round" stroke-linejoin="round" stroke-miterlimit="10" stroke-width="16" d="
		M473,440H39c-8.3,0-15-6.7-15-15V135c0-8.3,6.7-15,15-15h434c8.3,0,15,6.7,15,15v290C488,433.3,481.3,440,473,440z"></path><rect width="400" height="224" x="56" y="184" fill="#C4C2C2" stroke="#000" stroke-linecap="round" stroke-linejoin="round" stroke-miterlimit="10" stroke-width="16"></rect><path fill="#C4C2C2" stroke="#000" stroke-linecap="round" stroke-linejoin="round" stroke-miterlimit="10" stroke-width="16" d="
		M256,152L256,152c-26.5,0-48-21.5-48-48V24h96v80C304,130.5,282.5,152,256,152z"></path><circle cx="256" cy="72" r="16" fill="#C4C2C2" stroke="#000" stroke-linecap="round" stroke-linejoin="round" stroke-miterlimit="10" stroke-width="16"></circle><path fill="#C4C2C2" stroke="#000" stroke-linecap="round" stroke-linejoin="round" stroke-miterlimit="10" stroke-width="16" d="
		M216,384H88v-32c0-35.3,28.7-64,64-64h0c35.3,0,64,28.7,64,64V384z"></path><path fill="#C4C2C2" stroke="#000" stroke-linecap="round" stroke-linejoin="round" stroke-miterlimit="10" stroke-width="16" d="
		M183.6,296.4c-9.3-5.3-20.1-8.4-31.6-8.4l0,0c-11.5,0-22.3,3.1-31.6,8.4L152,328L183.6,296.4z"></path><circle cx="152" cy="248" r="40" fill="#C4C2C2" stroke="#000" stroke-linecap="round" stroke-linejoin="round" stroke-miterlimit="10" stroke-width="16"></circle><line x1="328" x2="424" y1="216" y2="216" fill="none" stroke="#000" stroke-linecap="round" stroke-linejoin="round" stroke-miterlimit="10" stroke-width="16"></line><line x1="264" x2="424" y1="248" y2="248" fill="none" stroke="#000" stroke-linecap="round" stroke-linejoin="round" stroke-miterlimit="10" stroke-width="16"></line><line x1="264" x2="424" y1="280" y2="280" fill="none" stroke="#000" stroke-linecap="round" stroke-linejoin="round" stroke-miterlimit="10" stroke-width="16"></line><line x1="264" x2="424" y1="312" y2="312" fill="none" stroke="#000" stroke-linecap="round" stroke-linejoin="round" stroke-miterlimit="10" stroke-width="16"></line><line x1="424" x2="368" y1="344" y2="344" fill="none" stroke="#000" stroke-linecap="round" stroke-linejoin="round" stroke-miterlimit="10" stroke-width="16"></line><line x1="424" x2="312" y1="376" y2="376" fill="none" stroke="#000" stroke-linecap="round" stroke-linejoin="round" stroke-miterlimit="10" stroke-width="16"></line><line x1="152" x2="152" y1="384" y2="328" fill="#C4C2C2" stroke="#000" stroke-linecap="round" stroke-linejoin="round" stroke-miterlimit="10" stroke-width="16"></line></g><g display="none"><path d="M473,112H311.4c0.4-2.6,0.6-5.3,0.6-8V24c0-4.4-3.6-8-8-8h-96c-4.4,0-8,3.6-8,8v80c0,2.7,0.2,5.4,0.6,8H39
			c-12.7,0-23,10.3-23,23v290c0,12.7,10.3,23,23,23h434c12.7,0,23-10.3,23-23V135C496,122.3,485.7,112,473,112z M216,32h80v72
			c0,22.1-17.9,40-40,40s-40-17.9-40-40V32z M480,425c0,3.9-3.1,7-7,7H39c-3.9,0-7-3.1-7-7V135c0-3.9,3.1-7,7-7h166.4
			c9,18.9,28.3,32,50.6,32s41.6-13.1,50.6-32H473c3.9,0,7,3.1,7,7V425z"></path><path d="M456 176H56c-4.4 0-8 3.6-8 8v224c0 4.4 3.6 8 8 8h400c4.4 0 8-3.6 8-8V184C464 179.6 460.4 176 456 176zM448 400H64V192h384V400zM256 96c13.2 0 24-10.8 24-24s-10.8-24-24-24-24 10.8-24 24S242.8 96 256 96zM256 64c4.4 0 8 3.6 8 8s-3.6 8-8 8-8-3.6-8-8S251.6 64 256 64z"></path><path d="M88 392h128c4.4 0 8-3.6 8-8v-32c0-26.6-14.5-49.8-36-62.3-.1-.1-.3-.2-.4-.3-.4-.2-.8-.4-1.2-.6-.1 0-.2-.1-.2-.1-1-.5-1.9-1-2.9-1.5-.1-.1-.2-.1-.3-.2-.6-.3-1.2-.6-1.8-.8 11.5-8.8 18.9-22.6 18.9-38.1 0-26.5-21.5-48-48-48s-48 21.5-48 48c0 15.5 7.4 29.4 18.9 38.1-.6.3-1.2.6-1.8.8-.1.1-.2.1-.3.2-1 .5-2 1-2.9 1.5-.1 0-.2.1-.2.1-.4.2-.8.4-1.2.6-.2.1-.3.2-.4.3-21.5 12.5-36 35.7-36 62.3v32C80 388.4 83.6 392 88 392zM134.6 298.8c.5-.2 1.1-.3 1.6-.5.2-.1.4-.1.5-.2 9.9-2.8 20.7-2.8 30.6 0 .2.1.4.1.5.2.5.2 1.1.3 1.6.5.1 0 .2.1.3.1L152 316.7l-17.8-17.8C134.3 298.9 134.4 298.8 134.6 298.8zM208 352v24h-48v-44.7l24.7-24.7C198.8 316.8 208 333.3 208 352zM152 216c17.6 0 32 14.4 32 32s-14.4 32-32 32-32-14.4-32-32S134.4 216 152 216zM96 352c0-18.7 9.2-35.2 23.3-45.4l24.7 24.7V376H96V352zM328 224h96c4.4 0 8-3.6 8-8s-3.6-8-8-8h-96c-4.4 0-8 3.6-8 8S323.6 224 328 224zM264 256h160c4.4 0 8-3.6 8-8s-3.6-8-8-8H264c-4.4 0-8 3.6-8 8S259.6 256 264 256zM264 288h160c4.4 0 8-3.6 8-8s-3.6-8-8-8H264c-4.4 0-8 3.6-8 8S259.6 288 264 288zM264 320h160c4.4 0 8-3.6 8-8s-3.6-8-8-8H264c-4.4 0-8 3.6-8 8S259.6 320 264 320zM424 336h-56c-4.4 0-8 3.6-8 8s3.6 8 8 8h56c4.4 0 8-3.6 8-8S428.4 336 424 336zM424 368H312c-4.4 0-8 3.6-8 8s3.6 8 8 8h112c4.4 0 8-3.6 8-8S428.4 368 424 368z"></path></g><g display="none"><linearGradient id="a" x1="58.744" x2="453.256" y1="477.256" y2="82.744" gradientUnits="userSpaceOnUse"><stop offset="0" stop-color="#12c2e9"></stop><stop offset=".548" stop-color="#c471ed"></stop><stop offset="1" stop-color="#f64f59"></stop></linearGradient><path fill="url(#a)" d="M473,112H311.4c0.4-2.6,0.6-5.3,0.6-8V24c0-4.4-3.6-8-8-8h-96c-4.4,0-8,3.6-8,8v80
		c0,2.7,0.2,5.4,0.6,8H39c-12.7,0-23,10.3-23,23v290c0,12.7,10.3,23,23,23h434c12.7,0,23-10.3,23-23V135
		C496,122.3,485.7,112,473,112z M216,32h80v72c0,22.1-17.9,40-40,40s-40-17.9-40-40V32z M480,425c0,3.9-3.1,7-7,7H39
		c-3.9,0-7-3.1-7-7V135c0-3.9,3.1-7,7-7h166.4c9,18.9,28.3,32,50.6,32s41.6-13.1,50.6-32H473c3.9,0,7,3.1,7,7V425z M456,176H56
		c-4.4,0-8,3.6-8,8v224c0,4.4,3.6,8,8,8h400c4.4,0,8-3.6,8-8V184C464,179.6,460.4,176,456,176z M448,400H64V192h384V400z M256,96
		c13.2,0,24-10.8,24-24s-10.8-24-24-24s-24,10.8-24,24S242.8,96,256,96z M256,64c4.4,0,8,3.6,8,8s-3.6,8-8,8s-8-3.6-8-8
		S251.6,64,256,64z M88,392h128c4.4,0,8-3.6,8-8v-32c0-26.6-14.5-49.8-36-62.3c-0.1-0.1-0.3-0.2-0.4-0.3c-0.4-0.2-0.8-0.4-1.2-0.6
		c-0.1,0-0.2-0.1-0.2-0.1c-1-0.5-1.9-1-2.9-1.5c-0.1-0.1-0.2-0.1-0.3-0.2c-0.6-0.3-1.2-0.6-1.8-0.8c11.5-8.8,18.9-22.6,18.9-38.1
		c0-26.5-21.5-48-48-48s-48,21.5-48,48c0,15.5,7.4,29.4,18.9,38.1c-0.6,0.3-1.2,0.6-1.8,0.8c-0.1,0.1-0.2,0.1-0.3,0.2
		c-1,0.5-2,1-2.9,1.5c-0.1,0-0.2,0.1-0.2,0.1c-0.4,0.2-0.8,0.4-1.2,0.6c-0.2,0.1-0.3,0.2-0.4,0.3c-21.5,12.5-36,35.7-36,62.3v32
		C80,388.4,83.6,392,88,392z M134.6,298.8c0.5-0.2,1.1-0.3,1.6-0.5c0.2-0.1,0.4-0.1,0.5-0.2c9.9-2.8,20.7-2.8,30.6,0
		c0.2,0.1,0.4,0.1,0.5,0.2c0.5,0.2,1.1,0.3,1.6,0.5c0.1,0,0.2,0.1,0.3,0.1L152,316.7l-17.8-17.8
		C134.3,298.9,134.4,298.8,134.6,298.8z M208,352v24h-48v-44.7l24.7-24.7C198.8,316.8,208,333.3,208,352z M152,216
		c17.6,0,32,14.4,32,32s-14.4,32-32,32s-32-14.4-32-32S134.4,216,152,216z M96,352c0-18.7,9.2-35.2,23.3-45.4l24.7,24.7V376H96V352z
		 M320,216c0-4.4,3.6-8,8-8h96c4.4,0,8,3.6,8,8s-3.6,8-8,8h-96C323.6,224,320,220.4,320,216z M256,248c0-4.4,3.6-8,8-8h160
		c4.4,0,8,3.6,8,8s-3.6,8-8,8H264C259.6,256,256,252.4,256,248z M256,280c0-4.4,3.6-8,8-8h160c4.4,0,8,3.6,8,8s-3.6,8-8,8H264
		C259.6,288,256,284.4,256,280z M256,312c0-4.4,3.6-8,8-8h160c4.4,0,8,3.6,8,8s-3.6,8-8,8H264C259.6,320,256,316.4,256,312z
		 M432,344c0,4.4-3.6,8-8,8h-56c-4.4,0-8-3.6-8-8s3.6-8,8-8h56C428.4,336,432,339.6,432,344z M432,376c0,4.4-3.6,8-8,8H312
		c-4.4,0-8-3.6-8-8s3.6-8,8-8h112C428.4,368,432,371.6,432,376z"></path></g><g display="none"><circle cx="152" cy="248" r="32"></circle><circle cx="256" cy="72" r="8"></circle><path d="M169.4 298.8c-.5-.2-1.1-.3-1.6-.5-.2-.1-.4-.1-.5-.2-9.9-2.8-20.7-2.8-30.6 0-.2.1-.4.1-.5.2-.5.2-1.1.3-1.6.5-.1 0-.2.1-.3.1l17.8 17.8 17.8-17.8C169.7 298.9 169.6 298.8 169.4 298.8zM160 376h48v-24c0-18.7-9.2-35.2-23.3-45.4L160 331.3V376zM144 331.3l-24.7-24.7C105.2 316.8 96 333.3 96 352v24h48V331.3z"></path><path d="M473,128H306.6c-9,18.9-28.3,32-50.6,32s-41.6-13.1-50.6-32H39c-3.9,0-7,3.1-7,7v290c0,3.9,3.1,7,7,7h434c3.9,0,7-3.1,7-7
			V135C480,131.1,476.9,128,473,128z M464,408c0,4.4-3.6,8-8,8H56c-4.4,0-8-3.6-8-8V184c0-4.4,3.6-8,8-8h400c4.4,0,8,3.6,8,8V408z"></path><path d="M256 144c22.1 0 40-17.9 40-40V32h-80v72C216 126.1 233.9 144 256 144zM256 48c13.2 0 24 10.8 24 24s-10.8 24-24 24-24-10.8-24-24S242.8 48 256 48zM64 400h384V192H64V400zM424 384H312c-4.4 0-8-3.6-8-8s3.6-8 8-8h112c4.4 0 8 3.6 8 8S428.4 384 424 384zM424 352h-56c-4.4 0-8-3.6-8-8s3.6-8 8-8h56c4.4 0 8 3.6 8 8S428.4 352 424 352zM328 208h96c4.4 0 8 3.6 8 8s-3.6 8-8 8h-96c-4.4 0-8-3.6-8-8S323.6 208 328 208zM264 240h160c4.4 0 8 3.6 8 8s-3.6 8-8 8H264c-4.4 0-8-3.6-8-8S259.6 240 264 240zM264 272h160c4.4 0 8 3.6 8 8s-3.6 8-8 8H264c-4.4 0-8-3.6-8-8S259.6 272 264 272zM264 304h160c4.4 0 8 3.6 8 8s-3.6 8-8 8H264c-4.4 0-8-3.6-8-8S259.6 304 264 304zM80 352c0-26.6 14.5-49.8 36-62.3.1-.1.3-.2.4-.3.4-.2.8-.4 1.2-.6.1 0 .2-.1.2-.1 1-.5 1.9-1 2.9-1.5.1-.1.2-.1.3-.2.6-.3 1.2-.6 1.8-.8-11.5-8.8-18.9-22.6-18.9-38.1 0-26.5 21.5-48 48-48s48 21.5 48 48c0 15.5-7.4 29.4-18.9 38.1.6.3 1.2.6 1.8.8.1.1.2.1.3.2 1 .5 2 1 2.9 1.5.1 0 .2.1.2.1.4.2.8.4 1.2.6.2.1.3.2.4.3 21.5 12.5 36 35.7 36 62.3v32c0 4.4-3.6 8-8 8H88c-4.4 0-8-3.6-8-8V352z"></path></g><g display="none"><path fill="#5CA1C4" d="M473,440H39c-8.3,0-15-6.7-15-15V135c0-8.3,6.7-15,15-15h434c8.3,0,15,6.7,15,15v290
		C488,433.3,481.3,440,473,440z"></path><rect width="400" height="224" x="56" y="184" fill="#EECC6E"></rect><path fill="#1F4256" d="M256,152L256,152c-26.5,0-48-21.5-48-48V24h96v80C304,130.5,282.5,152,256,152z"></path><circle cx="256" cy="72" r="16" fill="#EECC6E"></circle><path fill="#BD6067" d="M216,384H88v-32c0-35.3,28.7-64,64-64h0c35.3,0,64,28.7,64,64V384z"></path><circle cx="152" cy="248" r="40" fill="#377497"></circle><path fill="#1F4256" d="M424 224h-96c-4.4 0-8-3.6-8-8s3.6-8 8-8h96c4.4 0 8 3.6 8 8S428.4 224 424 224zM424 256H264c-4.4 0-8-3.6-8-8s3.6-8 8-8h160c4.4 0 8 3.6 8 8S428.4 256 424 256zM424 288H264c-4.4 0-8-3.6-8-8s3.6-8 8-8h160c4.4 0 8 3.6 8 8S428.4 288 424 288zM424 320H264c-4.4 0-8-3.6-8-8s3.6-8 8-8h160c4.4 0 8 3.6 8 8S428.4 320 424 320zM424 352h-56c-4.4 0-8-3.6-8-8s3.6-8 8-8h56c4.4 0 8 3.6 8 8S428.4 352 424 352zM424 384H312c-4.4 0-8-3.6-8-8s3.6-8 8-8h112c4.4 0 8 3.6 8 8S428.4 384 424 384zM152 312c-4.4 0-8 3.6-8 8v64h16v-64C160 315.6 156.4 312 152 312z"></path><path fill="#EA7780" d="M183.6,296.4c-9.3-5.3-20.1-8.4-31.6-8.4l0,0c-11.5,0-22.3,3.1-31.6,8.4L152,328
		L183.6,296.4z"></path></g><path fill="#5CA1C4" d="M473,440H39c-8.3,0-15-6.7-15-15V135c0-8.3,6.7-15,15-15h434c8.3,0,15,6.7,15,15v290
		C488,433.3,481.3,440,473,440z"></path><rect width="400" height="224" x="56" y="184" fill="#EECC6E"></rect><path fill="#1F4256" d="M256,152L256,152c-26.5,0-48-21.5-48-48V24h96v80C304,130.5,282.5,152,256,152z"></path><circle cx="256" cy="72" r="16" fill="#EECC6E"></circle><path fill="#BD6067" d="M216,384H88v-32c0-35.3,28.7-64,64-64h0c35.3,0,64,28.7,64,64V384z"></path><circle cx="152" cy="248" r="40" fill="#377497"></circle><path fill="#1F4256" d="M424 224h-96c-4.4 0-8-3.6-8-8s3.6-8 8-8h96c4.4 0 8 3.6 8 8S428.4 224 424 224zM424 256H264c-4.4 0-8-3.6-8-8s3.6-8 8-8h160c4.4 0 8 3.6 8 8S428.4 256 424 256zM424 288H264c-4.4 0-8-3.6-8-8s3.6-8 8-8h160c4.4 0 8 3.6 8 8S428.4 288 424 288zM424 320H264c-4.4 0-8-3.6-8-8s3.6-8 8-8h160c4.4 0 8 3.6 8 8S428.4 320 424 320zM424 352h-56c-4.4 0-8-3.6-8-8s3.6-8 8-8h56c4.4 0 8 3.6 8 8S428.4 352 424 352zM424 384H312c-4.4 0-8-3.6-8-8s3.6-8 8-8h112c4.4 0 8 3.6 8 8S428.4 384 424 384zM152 312c-4.4 0-8 3.6-8 8v64h16v-64C160 315.6 156.4 312 152 312z"></path><path fill="#EA7780" d="M183.6,296.4c-9.3-5.3-20.1-8.4-31.6-8.4l0,0c-11.5,0-22.3,3.1-31.6,8.4L152,328L183.6,296.4z"></path><path d="M473,112H311.4c0.4-2.6,0.6-5.3,0.6-8V24c0-4.4-3.6-8-8-8h-96c-4.4,0-8,3.6-8,8v80c0,2.7,0.2,5.4,0.6,8H39
			c-12.7,0-23,10.3-23,23v290c0,12.7,10.3,23,23,23h434c12.7,0,23-10.3,23-23V135C496,122.3,485.7,112,473,112z M216,32h80v72
			c0,22.1-17.9,40-40,40s-40-17.9-40-40V32z M480,425c0,3.9-3.1,7-7,7H39c-3.9,0-7-3.1-7-7V135c0-3.9,3.1-7,7-7h166.4
			c9,18.9,28.3,32,50.6,32s41.6-13.1,50.6-32H473c3.9,0,7,3.1,7,7V425z"></path><path d="M456 176H56c-4.4 0-8 3.6-8 8v224c0 4.4 3.6 8 8 8h400c4.4 0 8-3.6 8-8V184C464 179.6 460.4 176 456 176zM448 400H64V192h384V400zM256 96c13.2 0 24-10.8 24-24s-10.8-24-24-24-24 10.8-24 24S242.8 96 256 96zM256 64c4.4 0 8 3.6 8 8s-3.6 8-8 8-8-3.6-8-8S251.6 64 256 64z"></path><path d="M88 392h128c4.4 0 8-3.6 8-8v-32c0-26.6-14.5-49.8-36-62.3-.1-.1-.3-.2-.4-.3-.4-.2-.8-.4-1.2-.6-.1 0-.2-.1-.2-.1-1-.5-1.9-1-2.9-1.5-.1-.1-.2-.1-.3-.2-.6-.3-1.2-.6-1.8-.8 11.5-8.8 18.9-22.6 18.9-38.1 0-26.5-21.5-48-48-48s-48 21.5-48 48c0 15.5 7.4 29.4 18.9 38.1-.6.3-1.2.6-1.8.8-.1.1-.2.1-.3.2-1 .5-2 1-2.9 1.5-.1 0-.2.1-.2.1-.4.2-.8.4-1.2.6-.2.1-.3.2-.4.3-21.5 12.5-36 35.7-36 62.3v32C80 388.4 83.6 392 88 392zM134.6 298.8c.5-.2 1.1-.3 1.6-.5.2-.1.4-.1.5-.2 9.9-2.8 20.7-2.8 30.6 0 .2.1.4.1.5.2.5.2 1.1.3 1.6.5.1 0 .2.1.3.1L152 316.7l-17.8-17.8C134.3 298.9 134.4 298.8 134.6 298.8zM208 352v24h-48v-44.7l24.7-24.7C198.8 316.8 208 333.3 208 352zM152 216c17.6 0 32 14.4 32 32s-14.4 32-32 32-32-14.4-32-32S134.4 216 152 216zM96 352c0-18.7 9.2-35.2 23.3-45.4l24.7 24.7V376H96V352zM328 224h96c4.4 0 8-3.6 8-8s-3.6-8-8-8h-96c-4.4 0-8 3.6-8 8S323.6 224 328 224zM264 256h160c4.4 0 8-3.6 8-8s-3.6-8-8-8H264c-4.4 0-8 3.6-8 8S259.6 256 264 256zM264 288h160c4.4 0 8-3.6 8-8s-3.6-8-8-8H264c-4.4 0-8 3.6-8 8S259.6 288 264 288zM264 320h160c4.4 0 8-3.6 8-8s-3.6-8-8-8H264c-4.4 0-8 3.6-8 8S259.6 320 264 320zM424 336h-56c-4.4 0-8 3.6-8 8s3.6 8 8 8h56c4.4 0 8-3.6 8-8S428.4 336 424 336zM424 368H312c-4.4 0-8 3.6-8 8s3.6 8 8 8h112c4.4 0 8-3.6 8-8S428.4 368 424 368z"></path></svg>